<svg width="34" height="42" viewBox="0 0 34 42" fill="none" xmlns="http://www.w3.org/2000/svg">
<path d="M17 2.75C13.3533 2.75 9.85591 4.19866 7.27728 6.77728C4.69866 9.35591 3.25 12.8533 3.25 16.5V19.25H6C6.72935 19.25 7.42882 19.5397 7.94454 20.0555C8.46027 20.5712 8.75 21.2707 8.75 22V30.25C8.75 30.9793 8.46027 31.6788 7.94454 32.1945C7.42882 32.7103 6.72935 33 6 33H3.25C2.52065 33 1.82118 32.7103 1.30546 32.1945C0.789731 31.6788 0.5 30.9793 0.5 30.25V16.5C0.5 14.3332 0.926785 12.1876 1.75599 10.1857C2.58519 8.18385 3.80057 6.3649 5.33274 4.83274C6.8649 3.30057 8.68385 2.08519 10.6857 1.25599C12.6876 0.426785 14.8332 0 17 0C19.1668 0 21.3124 0.426785 23.3143 1.25599C25.3161 2.08519 27.1351 3.30057 28.6673 4.83274C30.1994 6.3649 31.4148 8.18385 32.244 10.1857C33.0732 12.1876 33.5 14.3332 33.5 16.5V33C33.5 34.8234 32.7757 36.572 31.4864 37.8614C30.197 39.1507 28.4484 39.875 26.625 39.875H20.7565C20.5151 40.293 20.168 40.6402 19.75 40.8816C19.3319 41.1229 18.8577 41.25 18.375 41.25H15.625C14.8957 41.25 14.1962 40.9603 13.6805 40.4445C13.1647 39.9288 12.875 39.2293 12.875 38.5C12.875 37.7707 13.1647 37.0712 13.6805 36.5555C14.1962 36.0397 14.8957 35.75 15.625 35.75H18.375C18.8577 35.75 19.3319 35.8771 19.75 36.1184C20.168 36.3598 20.5151 36.707 20.7565 37.125H26.625C27.719 37.125 28.7682 36.6904 29.5418 35.9168C30.3154 35.1432 30.75 34.094 30.75 33H28C27.2707 33 26.5712 32.7103 26.0555 32.1945C25.5397 31.6788 25.25 30.9793 25.25 30.25V22C25.25 21.2707 25.5397 20.5712 26.0555 20.0555C26.5712 19.5397 27.2707 19.25 28 19.25H30.75V16.5C30.75 14.6943 30.3943 12.9063 29.7033 11.2381C29.0123 9.56988 27.9995 8.05409 26.7227 6.77728C25.4459 5.50048 23.9301 4.48766 22.2619 3.79666C20.5937 3.10565 18.8057 2.75 17 2.75Z" fill="#26B893"/>
</svg>
